#!OML:ASF F:\VICON\USERDATA\INSTALL\Justin_Nancy\Justin_Nancy.ASF
:FULLY-SPECIFIED
:DEGREES
16
root 1.49112 16.8106 -16.7453 -4.22086 -6.1644 5.89306
lowerback 10.0197 -0.176405 -7.72475
upperback 0.835931 -1.00294 1.95962
thorax -4.58507 -0.328086 6.57919
lowerneck -18.5357 -1.16217 -8.23067
upperneck 16.2495 -0.279328 4.72816
head 8.10586 -0.163849 2.90189
rclavicle -2.0276e-014 -2.94201e-014
rhumerus -63.9232 8.85991 -97.7165
rradius 111.563
rwrist -20.0743
rhand -13.0098 26.9673
rfingers 7.12502
rthumb 13.0837 -2.60231
lclavicle -2.0276e-014 -2.94201e-014
lhumerus -37.1365 -1.90119 96.0407
lradius 113.639
lwrist 37.1375
lhand -16.4738 7.73123
lfingers 7.12502
lthumb 9.7431 37.4859
rfemur -40.9091 1.64718 13.8129
rtibia 65.9351
rfoot -5.71073 -11.0469
rtoes -4.01683
lfemur 0.909125 3.52405 -27.6144
ltibia 44.3757
lfoot -16.0835 6.81666
ltoes -27.4734
17
root 1.48756 16.9458 -16.1838 -4.07941 -3.13887 5.30414
lowerback 9.44105 -1.62996 -6.54712
upperback 0.917778 -2.76206 2.04914
thorax -3.9242 -1.25353 6.18982
lowerneck -18.7671 -0.91498 -8.00339
upperneck 16.3533 0.0588425 4.50888
head 8.15735 -0.0116319 2.83427
rclavicle -3.33958e-014 3.33958e-014
rhumerus -64.8732 9.324 -97.6743
rradius 112.358
rwrist -19.3942
rhand -12.5668 27.1929
rfingers 7.12502
rthumb 13.5108 -2.34882
lclavicle -3.33958e-014 3.33958e-014
lhumerus -36.7005 -1.79353 95.6049
lradius 115.508
lwrist 37.7809
lhand -16.3335 7.87232
lfingers 7.12502
lthumb 9.87839 37.6206
rfemur -39.5998 -0.904038 14.2271
rtibia 60.3015
rfoot -5.04465 -10.9709
rtoes -3.86821
lfemur 3.27935 0.849677 -27.0186
ltibia 42.901
lfoot -13.3639 5.30712
ltoes -28.031
18
root 1.45839 17.0463 -15.6414 -4.19055 -3.32324 5.3342
lowerback 8.87181 -1.85502 -6.56125
upperback 1.06054 -3.02059 2.14207
thorax -3.41086 -1.40825 6.28907
lowerneck -18.9903 -0.74078 -7.9724
upperneck 16.5233 0.309768 4.48798
head 8.23617 0.105899 2.85719
rclavicle -2.04251e-014 1.35174e-014
rhumerus -65.7347 9.66116 -97.456
rradius 113.137
rwrist -18.7083
rhand -12.6447 28.0793
rfingers 7.12502
rthumb 13.4357 -1.46739
lclavicle -2.04251e-014 1.35174e-014
lhumerus -36.3541 -1.9508 95.2429
lradius 117.247
lwrist 38.3433
lhand -16.2908 7.68297
lfingers 7.12502
lthumb 9.91964 37.4293
rfemur -38.7575 -0.695559 14.351
rtibia 54.4694
rfoot -2.42226 -10.2422
rtoes -3.90098
lfemur 5.72129 0.93898 -26.9107
ltibia 41.2249
lfoot -10.1239 3.96912
ltoes -26.2954
19
root 1.42358 17.1458 -15.0956 -4.21459 -3.54255 5.12251
lowerback 8.48176 -2.11774 -6.31153
upperback 0.933672 -3.32069 2.27538
thorax -3.2858 -1.5624 6.29991
lowerneck -18.896 -0.575191 -7.99694
upperneck 16.8263 0.523257 4.5289
head 8.3068 0.203443 2.9058
rclavicle -3.79679e-014 1.11319e-014
rhumerus -66.7986 9.99253 -97.4069
rradius 113.795
rwrist -18.1067
rhand -13.0956 28.4669
rfingers 7.12502
rthumb 13.0011 -1.10797
lclavicle -3.79679e-014 1.11319e-014
lhumerus -36.5178 -2.12914 94.8104
lradius 118.894
lwrist 38.8546
lhand -16.2105 6.84319
lfingers 7.12502
lthumb 9.99708 36.5858
rfemur -37.7222 -0.431823 14.7565
rtibia 48.425
rfoot 1.60412 -9.36813
rtoes -4.40529
lfemur 8.08408 0.914299 -26.5294
ltibia 39.3445
lfoot -5.92506 2.5972
ltoes -25.2752
20
root 1.38042 17.2396 -14.5417 -4.07781 -3.73219 4.84456
lowerback 7.9377 -2.36706 -5.85575
upperback 0.701457 -3.58449 2.28305
thorax -3.21199 -1.69646 6.04889
lowerneck -18.8344 -0.472174 -7.86853
upperneck 17.2862 0.606661 4.57839
head 8.44533 0.247875 2.91988
rclavicle 4.81059e-014 -1.74931e-014
rhumerus -67.9591 9.97222 -97.515
rradius 114.544
rwrist -17.7307
rhand -13.0576 28.3925
rfingers 7.12502
rthumb 13.0377 -1.18002
lclavicle 4.81059e-014 -1.74931e-014
lhumerus -37.0584 -2.67886 94.1207
lradius 120.457
lwrist 39.1344
lhand -15.6379 6.21739
lfingers 7.12502
lthumb 10.5495 35.9326
rfemur -36.6819 -0.0494517 15.1943
rtibia 42.3059
rfoot 6.40168 -8.83991
rtoes -5.01617
lfemur 10.3973 0.722639 -26.0388
ltibia 37.2555
lfoot -1.69323 1.35248
ltoes -25.6854
21
root 1.33514 17.3248 -13.9815 -4.1092 -3.60807 4.73936
lowerback 7.47185 -2.62923 -5.62028
upperback 0.606578 -3.89128 2.26661
thorax -3.02284 -1.85769 5.89781
lowerneck -19.1704 -0.415341 -7.79264
upperneck 17.9096 0.670697 4.63478
head 8.71191 0.280939 2.95031
rclavicle 4.0726e-014 -3.10104e-014
rhumerus -68.9282 9.78598 -97.393
rradius 115.415
rwrist -17.7344
rhand -12.2988 28.0589
rfingers 7.12502
rthumb 13.7691 -1.46543
lclavicle 4.0726e-014 -3.10104e-014
lhumerus -37.5004 -3.45827 93.4536
lradius 121.999
lwrist 39.2737
lhand -14.6416 6.1634
lfingers 7.12502
lthumb 11.5104 35.8274
rfemur -35.2765 0.105755 15.3071
rtibia 36.3257
rfoot 10.724 -9.64798
rtoes -9.16464
lfemur 12.7805 0.181424 -25.7451
ltibia 35.1141
lfoot 2.56988 0.227487
ltoes -25.7146
22
root 1.29597 17.398 -13.4229 -4.15295 -3.41506 4.89588
lowerback 7.1669 -2.87277 -5.7088
upperback 0.390134 -4.21087 2.27022
thorax -3.02649 -2.01034 5.96517
lowerneck -19.2859 -0.321932 -7.77341
upperneck 18.4223 0.795535 4.63938
head 8.89936 0.333065 2.97628
rclavicle 3.55328e-015 -6.36111e-015
rhumerus -69.901 9.66824 -97.0971
rradius 116.176
rwrist -17.7761
rhand -11.9682 27.8297
rfingers 7.12502
rthumb 14.0876 -1.67276
lclavicle 3.55328e-015 -6.36111e-015
lhumerus -38.0872 -4.24545 93.0047
lradius 123.396
lwrist 39.0676
lhand -13.5879 5.72802
lfingers 7.12502
lthumb 12.5264 35.3325
rfemur -33.761 -0.0247481 15.1428
rtibia 30.4422
rfoot 14.313 -10.6037
rtoes -6.09074
lfemur 14.8307 -0.789451 -25.9968
ltibia 33.0636
lfoot 7.6542 -0.426557
ltoes -24.1067
23
root 1.26522 17.4497 -12.8707 -4.12358 -3.39986 5.11337
lowerback 6.77115 -3.04976 -5.74773
upperback 0.0996892 -4.43416 2.26513
thorax -3.0737 -2.11187 5.9829
lowerneck -19.0523 -0.276274 -7.7617
upperneck 18.7135 0.872251 4.45832
head 8.95428 0.342308 2.92485
rclavicle 1.19084e-014 -3.18055e-015
rhumerus -70.9117 9.60213 -96.8095
rradius 116.897
rwrist -17.7995
rhand -12.2729 27.5691
rfingers 7.12502
rthumb 13.794 -1.95363
lclavicle 1.19084e-014 -3.18055e-015
lhumerus -38.8966 -5.16334 92.8137
lradius 124.585
lwrist 37.9596
lhand -12.7905 4.60131
lfingers 7.12502
lthumb 13.2952 34.1572
rfemur -31.9259 -0.812906 15.338
rtibia 24.8853
rfoot 16.5445 -10.2071
rtoes -4.8128
lfemur 16.5665 -1.93532 -26.5947
ltibia 31.2686
lfoot 12.7582 -1.30235
ltoes -20.9462
24
root 1.23311 17.505 -12.3202 -3.89168 -3.27251 5.1714
lowerback 6.11227 -3.15517 -5.49102
upperback -0.114137 -4.52678 2.19864
thorax -2.93898 -2.16209 5.73593
lowerneck -19.0945 -0.381457 -7.81939
upperneck 19.0411 0.745123 4.45084
head 9.08378 0.271608 2.92277
rclavicle 4.5969e-015 7.95139e-015
rhumerus -71.7055 9.11175 -96.4886
rradius 117.685
rwrist -17.7733
rhand -12.5388 27.3199
rfingers 7.12502
rthumb 13.5377 -2.22006
lclavicle 4.5969e-015 7.95139e-015
lhumerus -39.4901 -6.61918 92.5938
lradius 125.579
lwrist 36.1664
lhand -12.6876 3.88192
lfingers 7.12502
lthumb 13.3943 33.4313
rfemur -30.6654 -1.61984 15.6359
rtibia 19.6039
rfoot 18.4796 -8.9913
rtoes -5.80294
lfemur 17.7719 -3.23637 -27.0822
ltibia 30.0353
lfoot 16.3952 -4.02125
ltoes -19.4079
25
root 1.19787 17.5538 -11.7734 -3.58275 -3.02346 5.32448
lowerback 5.44739 -3.20019 -5.38937
upperback -0.437061 -4.5535 2.12811
thorax -2.91195 -2.1705 5.57243
lowerneck -19.0637 -0.562527 -8.02042
upperneck 19.4777 0.521853 4.5543
head 9.24442 0.155171 2.97193
rclavicle -3.80673e-014 1.27222e-014
rhumerus -72.7737 8.41724 -96.0137
rradius 118.627
rwrist -17.7923
rhand -12.801 27.2728
rfingers 7.12502
rthumb 13.285 -2.2838
lclavicle -3.80673e-014 1.27222e-014
lhumerus -40.0089 -8.06542 92.3304
lradius 126.174
lwrist 35.0364
lhand -12.4073 3.44708
lfingers 7.12502
lthumb 13.6645 32.9785
rfemur -29.6008 -2.38326 15.769
rtibia 14.9101
rfoot 19.7316 -7.73114
rtoes -6.22556
lfemur 18.3679 -4.59085 -27.6789
ltibia 29.5547
lfoot 17.7006 -7.35923
ltoes -18.5651
26
root 1.16048 17.5978 -11.2287 -3.25001 -2.40009 5.23603
lowerback 4.94498 -3.38746 -5.11566
upperback -0.946249 -4.76731 2.18543
thorax -3.1478 -2.26088 5.47708
lowerneck -18.7661 -0.698796 -8.09931
upperneck 19.971 0.366897 4.3682
head 9.37513 0.0432858 2.90691
rclavicle 3.90115e-015 -1.43125e-014
rhumerus -74.0773 7.88184 -95.4318
rradius 119.512
rwrist -17.7084
rhand -13.1406 27.3884
rfingers 7.12502
rthumb 12.9577 -2.18925
lclavicle 3.90115e-015 -1.43125e-014
lhumerus -40.6205 -9.12615 92.0237
lradius 126.456
lwrist 35.1846
lhand -12.4635 4.06007
lfingers 7.12502
lthumb 13.6103 33.5951
rfemur -28.183 -2.76386 15.8046
rtibia 10.5478
rfoot 20.6476 -8.07042
rtoes -5.23754
lfemur 18.7704 -6.31107 -27.9362
ltibia 29.846
lfoot 17.7139 -8.87933
ltoes -15.4102
27
root 1.12303 17.6147 -10.6958 -2.97531 -1.70547 5.42294
lowerback 4.61943 -3.50551 -5.09091
upperback -1.39385 -4.91699 2.11476
thorax -3.41952 -2.3164 5.39438
lowerneck -18.7752 -0.888388 -8.05452
upperneck 20.5258 0.143143 4.12175
head 9.58918 -0.0972614 2.79426
rclavicle -7.47927e-014 1.27222e-014
rhumerus -74.888 7.14777 -94.7831
rradius 120.053
rwrist -17.365
rhand -13.9109 27.9326
rfingers 7.12502
rthumb 12.2151 -1.69069
lclavicle -7.47927e-014 1.27222e-014
lhumerus -41.1634 -10.2499 91.8406
lradius 126.596
lwrist 35.331
lhand -12.2112 4.61782
lfingers 7.12502
lthumb 13.8534 34.1365
rfemur -27.0071 -3.26745 15.6086
rtibia 7.33297
rfoot 21.8125 -9.74956
rtoes -2.56168
lfemur 18.7324 -7.85696 -28.4198
ltibia 30.9039
lfoot 16.8727 -9.43493
ltoes -13.6357
28
root 1.0911 17.5959 -10.1856 -2.86767 -1.6287 5.7667
lowerback 4.48961 -3.34911 -5.18817
upperback -1.65302 -4.71602 1.9992
thorax -3.64446 -2.20076 5.32036
lowerneck -18.7636 -1.1682 -8.07324
upperneck 20.7167 -0.166741 3.80208
head 9.67817 -0.284211 2.64622
rclavicle -6.87298e-014 1.27222e-014
rhumerus -75.3343 6.35226 -94.0211
rradius 120.533
rwrist -16.6864
rhand -14.6409 28.4542
rfingers 7.12502
rthumb 11.5111 -1.20971
lclavicle -6.87298e-014 1.27222e-014
lhumerus -41.412 -11.3854 91.7297
lradius 126.426
lwrist 34.8598
lhand -11.1122 3.70356
lfingers 7.12502
lthumb 14.9124 33.1468
rfemur -26.7438 -3.11919 15.3239
rtibia 6.4394
rfoot 23.2696 -11.6601
rtoes -2.39731
lfemur 18.5796 -8.89383 -29.1825
ltibia 32.655
lfoot 14.7799 -9.18422
ltoes -13.3067
